# xmcd CD database file
#
# Track frame offsets:
#	150
#	14347
#	35007
#	66850
#
# Disc length: 1078 seconds
#
# Revision: 0
# Processed by: cddbd v1.5.1PL0 Copyright (c) Steve Scherf et al.
# Submitted via: CDex 1.50beta8
#
DISCID=2f043404
DTITLE=上戸彩 - 風
DYEAR=2004
DGENRE=JPop
TTITLE0=風
TTITLE1=贈る言葉〜シングルバージョン〜
TTITLE2=愛のために。〜march-tronik style〜
TTITLE3=風〜オリジナルカラオケ〜
EXTD=YEAR: 2004
EXTT0=
EXTT1=
EXTT2=
EXTT3=
PLAYORDER=
